<svg width="100" height="100" viewBox="0 0 100 100" fill="none" xmlns="http://www.w3.org/2000/svg">
<path d="M50 10.9375C28.4375 10.9375 10.9375 28.4375 10.9375 50C10.9375 71.5625 28.4375 89.0625 50 89.0625C71.5625 89.0625 89.0625 71.5625 89.0625 50C89.0625 28.4375 71.5625 10.9375 50 10.9375Z" fill="#46483E"/>
<path d="M50 74.9219C49.2969 74.9219 48.6719 74.7656 48.0469 74.375L41.9531 70.7812C41.0156 70.2344 41.4844 70.0781 41.7969 70C43.0469 69.5312 43.2813 69.4531 44.5312 68.75C44.6875 68.6719 44.8438 68.6719 45 68.8281L49.6875 71.6406C49.8438 71.7187 50.0781 71.7187 50.2344 71.6406L68.5156 61.0937C68.6719 61.0156 68.8281 60.7812 68.8281 60.625V39.5312C68.8281 39.2969 68.75 39.1406 68.5156 39.0625L50.3125 28.4375C50.1563 28.3594 49.9219 28.3594 49.7656 28.4375L31.4844 38.9063C31.3281 38.9844 31.1719 39.2188 31.1719 39.375V60.4688C31.1719 60.625 31.25 60.8594 31.4844 60.9375L36.4844 63.8281C39.2188 65.1562 40.8594 63.5938 40.8594 61.9531V41.25C40.8594 40.9375 41.0938 40.7031 41.4063 40.7031H43.75C44.0625 40.7031 44.2969 40.9375 44.2969 41.25V62.0312C44.2969 65.7031 42.3438 67.7344 38.9062 67.7344C37.8125 67.7344 37.0313 67.7344 34.6875 66.5625L29.9219 63.8281C28.75 63.125 27.9688 61.875 27.9688 60.4688V39.375C27.9688 38.0469 28.6719 36.7188 29.9219 36.0156L48.2031 25.4688C49.375 24.8438 50.9375 24.8438 52.0312 25.4688L70.3125 36.0156C71.4844 36.7188 72.2656 37.9688 72.2656 39.375V60.4688C72.2656 61.7969 71.5625 63.125 70.3125 63.8281L51.9531 74.4531C51.3281 74.7656 50.7031 74.9219 50 74.9219Z" fill="#81CF08"/>
<path d="M55.7031 60.3906C47.7344 60.3906 46.0156 56.7187 46.0156 53.6719C46.0156 53.3594 46.25 53.125 46.5625 53.125H48.9062C49.1406 53.125 49.375 53.2812 49.4531 53.5937C49.7656 56.0156 50.8594 57.1875 55.7031 57.1875C59.5313 57.1875 61.1719 56.3281 61.1719 54.2969C61.1719 53.125 60.7031 52.2656 54.6875 51.6406C49.6875 51.1719 46.5625 50.0781 46.5625 46.0156C46.5625 42.3438 49.6875 40.1562 54.9219 40.1562C60.7813 40.1562 63.6719 42.1875 64.0625 46.5625C64.0625 46.7187 63.9844 46.875 63.9063 46.9531C63.8281 47.0312 63.6719 47.1094 63.5156 47.1094H61.1719C60.9375 47.1094 60.7031 46.9531 60.625 46.7187C60.0781 44.2187 58.6719 43.3594 54.9219 43.3594C50.7031 43.3594 50.2344 44.8437 50.2344 45.9375C50.2344 47.2656 50.7813 47.6562 56.4844 48.4375C62.1094 49.1406 64.7656 50.2344 64.7656 54.1406C64.7656 58.125 61.4844 60.3906 55.7031 60.3906Z" fill="#81CF08"/>
</svg>
